# xmcd
#
# Track frame offsets:
#	150
#	21582
#	34875
#	48675
#	68138
#	88875
#	102000
#	122129
#	135788
#	157800
#	168207
#	181314
#	195489
#	206946
#	219518
#	232793
#	246293
#	259456
#	273275
#	285641
#	298556
#	309164
#	321239
#	335189
#	345877
#
# Disc length: 4745 seconds
# Revision: 1
# Processed by: cddbd v1.5.2PL0 Copyright (c) Steve Scherf et al.
# Submitted via: dBpowerAMP V12.0
#
DISCID=72128719
DTITLE=Muddy Waters - At Newport 1960 Plus Sings "Big Bill"
DYEAR=2011
DGENRE=Blues
TTITLE0=I Got My Brand on You
TTITLE1=(I'm Your) Hoochie Coochie Man
TTITLE2=Baby, Please Don't Go
TTITLE3=Soon Forgotten
TTITLE4=Iger in Your Tank
TTITLE5=I Feel So Good
TTITLE6=I've Got My Mojo Working (Part 1)
TTITLE7=I've Got My Mojo Working (Part 2)
TTITLE8=Goodbye Newport Blues
TTITLE9=Tell Me Baby
TTITLE10=Southbound Train
TTITLE11=When I Get to Thinking
TTITLE12=Just a Dream (On My Mind)
TTITLE13=Double Trouble
TTITLE14=I Feel So Good
TTITLE15=Baby, I Done Got Wise
TTITLE16=Mopper's Blues
TTITLE17=Lonesome Road Blues
TTITLE18=Hey, Hey
TTITLE19=I've Got My Mojo Working
TTITLE20=Meanest Woman
TTITLE21=Soon Forgotten
TTITLE22=Forty Days and Forty Nights
TTITLE23=I Gor My Brand on You
TTITLE24=Tiger in Your Tank
EXTD=
EXTT0=
EXTT1=
EXTT2=
EXTT3=
EXTT4=
EXTT5=
EXTT6=
EXTT7=
EXTT8=
EXTT9=
EXTT10=
EXTT11=
EXTT12=
EXTT13=
EXTT14=
EXTT15=
EXTT16=
EXTT17=
EXTT18=
EXTT19=
EXTT20=
EXTT21=
EXTT22=
EXTT23=
EXTT24=
PLAYORDER=
